# xmcd
#
# Track frame offsets: 
#        150
#        18706
#        35489
#        57375
#        73534
#        87732
#        103548
#        119495
#        137492
#        152842
#        172778
#        195745
#        212786
#        230591
#        251213
#
# Disc length: 3596 seconds
#
# Revision: 0
# Processed by: cddbd v1.5.2PL0 Copyright (c) Steve Scherf et al.
# Submitted via: ExactAudioCopy v0.99pb4
#
DISCID=da0e0a0f
DTITLE=Various Artist - All Time Love - 30 Of The Most Romanic Love Songs For
DTITLE=Life Time CD2
DYEAR=2003
DGENRE=Pop
TTITLE0=Jessica-Goodbye
TTITLE1=Morten Harket-Can't Take My Eyes Off You
TTITLE2=Rialto-Monday Morning
TTITLE3=LeAnn Rimes-Can't Fight The Moonlight
TTITLE4=Sixpence None The Richer-Kiss Me
TTITLE5=Michael Learns To Rock-Sleeping Child
TTITLE6=Indecent Obssession-Fixing A Broken Heart
TTITLE7=Spice Girls-2 Becom 1
TTITLE8=Phill Collines-Against All Odds
TTITLE9=Sarah McLachian-Angel
TTITLE10=Rockwell-The Knife
TTITLE11=Chicago-Hart To Say I'm Sorry
TTITLE12=Grover Washington Jr. and Bill Withers-I Just The Two Of Us
TTITLE13=Michael Buble-Kissing A Fool
TTITLE14=Iggy Pop and francoise Hardy-I'll Be Seeing You
EXTD=
EXTT0=
EXTT1=
EXTT2=
EXTT3=
EXTT4=
EXTT5=
EXTT6=
EXTT7=
EXTT8=
EXTT9=
EXTT10=
EXTT11=
EXTT12=
EXTT13=
EXTT14=
PLAYORDER=
